<svg width="1920" height="1920" viewBox="0 0 1920 1920" fill="none" xmlns="http://www.w3.org/2000/svg">
<path fill-rule="evenodd" clip-rule="evenodd" d="M201.716 302.238C136.145 424.61 97.5666 548.588 82.4421 669.034C17.4828 1186.35 383.341 1652.42 958.67 1664.98C1491.12 1653.82 1901.36 1189.59 1838.63 668.657C1824.16 548.475 1784.47 424.081 1714.22 300.279C1568.75 358.24 1446.76 386.012 1326.99 380.342C1202.27 374.437 1087.59 332.601 958.794 265.175C820.338 338.3 699.895 380.705 573.43 385.124C454.27 389.288 336.935 359.48 201.716 302.238ZM958.634 180C659.263 345.502 486.598 352.884 170.267 206.202C79.3783 355.596 26.8766 509.574 8.02647 659.69C-62.3862 1220.43 336.749 1727.28 958.634 1740C1534.88 1728.83 1981.35 1226.48 1913.1 659.69C1895.12 510.397 1841.43 356.635 1744.99 206.202C1408.26 352.396 1238.63 333.339 958.634 180Z" fill="#03007F"/>
<path d="M1688.88 362.014C1558.54 409.743 1441.91 433.583 1325.09 428.052C1197.9 422.031 1082.15 381.709 959.662 320C827.653 387.125 705.945 428.327 576.148 432.863C461.196 436.88 349.662 411.8 229.251 365.304C187.899 451.759 160.578 538.351 145.703 623.088H1777.09C1762.27 537.81 1733.68 450.151 1688.88 362.014Z" fill="#D03730"/>
<path d="M137.606 679.338H1784.94C1835.59 1160.84 1454.78 1589.18 959.444 1600.24C423.423 1587.91 83.6748 1159.34 137.606 679.338Z" fill="#03007F"/>
<path d="M697.125 1373V935.75H694.875L556.875 1029.5V929L696.75 831.875H809.25V1373H697.125ZM1144.5 1382.38C1007.25 1382.38 924 1274.75 924 1102.62V1101.88C924 929.75 1007.25 822.5 1144.5 822.5C1281.75 822.5 1365 929.75 1365 1101.88V1102.62C1365 1274.75 1281.75 1382.38 1144.5 1382.38ZM1144.5 1291.62C1212 1291.62 1250.62 1221.5 1250.62 1102.62V1101.88C1250.62 983 1212 913.25 1144.5 913.25C1077 913.25 1038.38 983 1038.38 1101.88V1102.62C1038.38 1221.5 1077 1291.62 1144.5 1291.62Z" fill="white"/>
</svg>
